<svg aria-hidden="true" style="position:absolute;width:0;height:0" xmlns="http://www.w3.org/2000/svg" overflow="hidden"><defs><symbol id="icon-vector-1" viewBox="0 0 30 32"><path d="M29.859 22.098l-8.443-8.505.937-4.616c.225.09.485.144.758.146h.033a2.16 2.16 0 10-2.029-1.42l-.005-.015-4.96.606L8.059.161a.53.53 0 00-.376-.16.536.536 0 00-.373.155L5.798 1.66a.535.535 0 000 .754l.814.825c-1.143 2.062-1.816 4.522-1.816 7.139 0 4.106 1.656 7.824 4.336 10.525l-.001-.001a.49.49 0 00.146.097 2.986 2.986 0 00-.052.546v6.188h-6.4a2.669 2.669 0 00-2.667 2.666v1.067c0 .295.239.534.534.534h24.534a.534.534 0 00.533-.534v-1.067a2.67 2.67 0 00-2.666-2.666h-6.4v-2.742a14.784 14.784 0 0010.166-1.502l-.077.039.818.823a.534.534 0 00.376.16.536.536 0 00.373-.155l1.512-1.504a.535.535 0 000-.754zM22.366 6.233a1.067 1.067 0 11.752 1.822h-.004a1.066 1.066 0 01-.747-1.822h-.002zM21.11 9.737l-.598 2.946-1.175-1.183 1.774-1.763zm-.606-.902l-1.92 1.909-1.486-1.493 3.406-.416zM23.09 28.8a1.6 1.6 0 011.6 1.6v.534H1.224V30.4a1.6 1.6 0 011.6-1.6h20.267zm-7.467-2.134v1.067h-5.334v-1.067h5.334zM10.29 25.6v-4.053c0-1.294 1.196-2.346 2.666-2.346s2.667 1.053 2.667 2.346V25.6H10.29zm6.4-1.696v-2.357c0-1.882-1.675-3.413-3.733-3.413h-.058c-1.353 0-2.54.707-3.213 1.771l-.009.016a13.817 13.817 0 01-3.812-9.55c0-2.314.567-4.496 1.569-6.414l-.036.077L26 22.743c-1.823.947-3.979 1.502-6.266 1.502-1.079 0-2.128-.124-3.136-.357l.093.018zm11.289-.684L6.922 2.039l.754-.752 7.935 7.98c.004 0 .006.007.01.01l13.115 13.191-.757.752z"/></symbol><symbol id="icon-vector-4" viewBox="0 0 29 32"><path d="M28.361 13.626a2.036 2.036 0 00-1.353-.807l-.011-.001a2.03 2.03 0 00-1.541.407l.005-.003-1.438 1.101-2.178 1.626-1.558-.621c2.778-1.246 4.72-4.026 4.72-7.252 0-4.387-3.583-7.956-7.988-7.956S9.031 3.69 9.031 8.077c0 1.59.476 3.069 1.285 4.313l-3.177-.028c-.01 0-.018.005-.027.005a.567.567 0 00-.182.038l.004-.001c-.015.005-.03.008-.044.015l-.022.007-3.71 1.831-.002.001-2.172 1.044a.512.512 0 00-.074.041l.002-.001a2.044 2.044 0 00-.681 2.646l-.005-.011c.252.486.68.852 1.197 1.016l.014.004a2.032 2.032 0 001.593-.153l-.011.005 1.593-.847L7.21 16.66l1.557-.009-6.245 6.214-.002.002-1.536 1.53c-.348.343-.563.82-.563 1.347v.006a1.914 1.914 0 001.913 1.91h.003c.491 0 .98-.186 1.354-.557l1.508-1.502 1.998-1.491 1.033 1.029-3.559 3.544c-.348.343-.563.82-.563 1.347v.005a1.909 1.909 0 001.913 1.91h.004c.49 0 .981-.186 1.354-.557l5.15-5.132c.008-.007.018-.01.026-.018l5.928-6.493 3.983.567a.62.62 0 00.302-.038c.02-.007.037-.017.057-.027.022-.011.045-.017.066-.031l3.687-2.448c.014-.009.021-.024.034-.034.015-.012.033-.016.047-.029l1.458-1.367c.399-.374.647-.904.647-1.492 0-.459-.152-.883-.407-1.224l.004.005zM2.445 17.769a.812.812 0 01-.647.058l.006.002a.823.823 0 01-.246-1.443l.002-.002 1.508-.726.363 1.061.152.446-1.138.605zm4.013-2.097l-1.777.918-.293-.857-.211-.616 2.326-1.148-.046 1.703zm17.327-7.597a6.661 6.661 0 01-.687 2.937L18.3 8.832a2.137 2.137 0 00-.898-1.588l-.007-.004 1.68-5.578c2.728.868 4.71 3.413 4.71 6.413zm-13.528 0c0-3.712 3.034-6.733 6.764-6.733.29 0 .574.025.855.06l-1.644 5.454c-.022 0-.043-.006-.066-.006h-.001a2.148 2.148 0 00-2.148 2.142 2.148 2.148 0 002.148 2.142h.001c.797 0 1.486-.44 1.857-1.084l4.433 2.013a6.762 6.762 0 01-5.436 2.743c-3.73 0-6.764-3.021-6.764-6.733zm6.835.918a.923.923 0 01-.925.918h-.002a.923.923 0 01-.923-.918c0-.506.414-.918.924-.918s.925.412.925.918zM2.828 26.233a.696.696 0 01-.981.001.68.68 0 010-.968l1.104-1.1.978.973-1.1 1.095zm3.688 4.284a.696.696 0 01-.981.001.68.68 0 010-.968l1.105-1.101.977.973-1.101 1.096zm3.995-3.98l-.002.002-2.025 2.02-.978-.973 2.025-2.016a.587.587 0 00.103-.156c.008-.016.023-.029.03-.046.019-.047.022-.098.029-.147.004-.028.016-.055.016-.084 0-.04-.015-.08-.023-.121-.007-.037-.007-.074-.021-.11a.588.588 0 00-.105-.158c-.012-.014-.016-.03-.028-.044h-.001l-.001-.003-1.844-1.836c-.019-.019-.045-.027-.067-.044a.647.647 0 00-.096-.065l-.003-.002a.565.565 0 00-.103-.036l-.004-.001a.567.567 0 00-.116-.023h-.002l-.026-.001a.636.636 0 00-.087.006h.003a.533.533 0 00-.227.075c-.023.013-.049.017-.07.033l-2.035 1.519-1.033-1.03 2.753-2.738 5.004 4.922-1.064 1.054zm7.826-8.052c-.018-.003-.035.004-.052.003l-.031-.001a.603.603 0 00-.105.009l.004-.001a.562.562 0 00-.214.08l.002-.001a.646.646 0 00-.095.07c-.015.013-.033.019-.046.034l-5.391 5.905-4.967-4.884 3.251-3.234a.613.613 0 00-.434-1.046h-.002l-2.546.015.032-1.844 3.562.03a7.952 7.952 0 005.713 2.411h.004c.502 0 .991-.052 1.468-.141a.62.62 0 00.148.097l2.766 1.102.175.87.205 1.016-3.446-.491zm4.637.205l-.359-1.788 1.66-1.24 1.086 1.442-2.387 1.585zm4.307-3.249l-.961.901-1.069-1.418.954-.731a.84.84 0 01.623-.164.826.826 0 01.713.815.82.82 0 01-.259.598z"/></symbol><symbol id="icon-instagram" viewBox="0 0 27 32"><path d="M18.286 16c0-2.518-2.054-4.571-4.571-4.571S9.144 13.483 9.144 16s2.054 4.571 4.571 4.571 4.571-2.054 4.571-4.571zm2.464 0c0 3.893-3.143 7.036-7.036 7.036S6.678 19.893 6.678 16s3.143-7.036 7.036-7.036S20.75 12.107 20.75 16zm1.929-7.321c0 .911-.732 1.643-1.643 1.643s-1.643-.732-1.643-1.643.732-1.643 1.643-1.643 1.643.732 1.643 1.643zM13.714 4.75c-2 0-6.286-.161-8.089.554-.625.25-1.089.554-1.571 1.036s-.786.946-1.036 1.571C2.304 9.715 2.464 14 2.464 16s-.161 6.286.554 8.089c.25.625.554 1.089 1.036 1.571s.946.786 1.571 1.036c1.804.714 6.089.554 8.089.554s6.286.161 8.089-.554c.625-.25 1.089-.554 1.571-1.036s.786-.946 1.036-1.571c.714-1.804.554-6.089.554-8.089s.161-6.286-.554-8.089c-.25-.625-.554-1.089-1.036-1.571s-.946-.786-1.571-1.036c-1.804-.714-6.089-.554-8.089-.554zM27.429 16c0 1.893.018 3.768-.089 5.661-.107 2.196-.607 4.143-2.214 5.75s-3.554 2.107-5.75 2.214c-1.893.107-3.768.089-5.661.089s-3.768.018-5.661-.089c-2.196-.107-4.143-.607-5.75-2.214S.197 23.857.09 21.661C-.017 19.768.001 17.893.001 16s-.018-3.768.089-5.661c.107-2.196.607-4.143 2.214-5.75s3.554-2.107 5.75-2.214c1.893-.107 3.768-.089 5.661-.089s3.768-.018 5.661.089c2.196.107 4.143.607 5.75 2.214s2.107 3.554 2.214 5.75c.107 1.893.089 3.768.089 5.661z"/></symbol><symbol id="icon-telephone" viewBox="0 0 20 32"><path fill="var(--color1, #757575)" d="M17 0H3C1.346 0 0 1.346 0 3v26c0 1.654 1.346 3 3 3h14c1.654 0 3-1.346 3-3V3c0-1.654-1.346-3-3-3zM3 2h14a1 1 0 011 1v21H2V3a1 1 0 011-1zm14 28H3a1 1 0 01-1-1v-3h16v3a1 1 0 01-1 1z"/></symbol><symbol id="icon-facebook" viewBox="0 0 18 32"><path fill="var(--color2, #afb1b8)" d="M13.328 5.312h2.923V.224A36.478 36.478 0 0012.144 0h-.157.008C7.782 0 4.896 2.65 4.896 7.52V12H.25v5.688h4.646V32h5.699V17.69h4.461l.709-5.69h-5.17V8.08c0-1.643.443-2.768 2.734-2.768z"/></symbol><symbol id="icon-twitter" viewBox="0 0 36 32"><path fill="var(--color2, #afb1b8)" d="M35.556 4.976c-1.222.548-2.64.952-4.125 1.142l-.076.008a7.29 7.29 0 003.193-3.977l.015-.051a14.295 14.295 0 01-4.529 1.748l-.093.016a7.287 7.287 0 00-12.606 4.981v.004c0 .578.048 1.134.169 1.662-6.06-.295-11.422-3.2-15.024-7.623a7.253 7.253 0 00-1.003 3.681v.001a7.307 7.307 0 003.237 6.059 7.162 7.162 0 01-3.327-.915l.036.019v.08a7.325 7.325 0 005.792 7.152l.048.009a7.086 7.086 0 01-1.854.24h-.061.003c-.466 0-.937-.027-1.38-.124.944 2.887 3.623 5.01 6.811 5.077a14.55 14.55 0 01-9.025 3.111h-.014.001-.069c-.59 0-1.172-.038-1.743-.11l.068.007c3.14 2.051 6.986 3.271 11.116 3.271h.07-.004c13.413 0 20.747-11.111 20.747-20.743 0-.32-.011-.633-.027-.942a14.673 14.673 0 003.62-3.727l.033-.052z"/></symbol><symbol id="icon-linkedin" viewBox="0 0 32 32"><path d="M12 12h5.535v2.837h.079c.77-1.381 2.655-2.837 5.464-2.837C28.92 12 30 15.637 30 20.367V30h-5.769v-8.54c0-2.037-.042-4.657-3.001-4.657-3.005 0-3.463 2.218-3.463 4.509V30H12V12zM2 12h6v18H2V12zM8 7a3 3 0 11-6 0 3 3 0 016 0z"/></symbol><symbol id="icon-vector-2" viewBox="0 0 31 32"><path d="M30.839 15.301C30.838 6.849 23.984-.002 15.531 0S.228 6.855.23 15.308c.002 6.788 4.422 12.543 10.541 14.545l.108.031a.667.667 0 00.529-.065.636.636 0 00.283-.357l3.865-12.25a1.913 1.913 0 10-.852-3.63l.011-.005L9.609 8.47a.638.638 0 00-.902.902l5.103 5.109a1.873 1.873 0 00.533 2.306l.004.003-3.683 11.673C3.386 25.782-.34 17.709 2.34 10.431S13.094-.573 20.372 2.108c7.278 2.681 11.004 10.754 8.323 18.032-1.345 3.581-4.003 6.406-7.374 7.938l-.088.036-.398-1.874a.639.639 0 00-1.05-.343l.001-.001-3.837 3.426a.637.637 0 00.227 1.083l.005.001 4.899 1.563a.637.637 0 00.818-.744l.001.004-.391-1.839c5.528-2.374 9.328-7.772 9.328-14.057v-.034.002zm-15.304-.637a.638.638 0 010 1.276.638.638 0 010-1.276zm2.1 14.864l2.184-1.948.603 2.84-2.787-.892z"/></symbol><symbol id="icon-vector-3" viewBox="0 0 32 32"><path d="M1.599 28.291h25.586a1.6 1.6 0 001.599-1.599V24.56a1.6 1.6 0 00-1.599-1.599h-.533V9.667l3.028-2.868a1.608 1.608 0 10-.742-.752l-.004-.01-2.281 2.162v-1.23a1.6 1.6 0 00-1.599-1.599H3.731a1.6 1.6 0 00-1.599 1.599v15.992h-.533A1.6 1.6 0 000 24.56v2.132a1.6 1.6 0 001.599 1.599zM30.384 4.837a.533.533 0 010 1.066.533.533 0 010-1.066zM3.198 6.969c0-.294.239-.533.533-.533h21.323c.294 0 .533.239.533.533v2.239l-1.066 1.013V8.036a.534.534 0 00-.534-.534H4.798a.534.534 0 00-.534.533v13.327c0 .294.239.533.534.533h19.189a.534.534 0 00.534-.533v-9.675l1.066-1.01V22.96H3.198V6.97zm4.798 6.93h-.005a1.6 1.6 0 101.112 2.748l1.853.93a.533.533 0 00.636-.123l3.939-4.431 3.872 2.902a.534.534 0 00.686-.039l3.365-3.188v8.131H5.331V8.568h18.123v2.661l-3.771 3.572-3.904-2.927a.534.534 0 00-.718.071v.001l-3.993 4.493-1.493-.746c.011-.064.017-.128.02-.193a1.6 1.6 0 00-1.599-1.599zm.533 1.599a.533.533 0 01-1.066 0 .533.533 0 011.066 0zm3.198 8.528h5.33v.533a.533.533 0 01-.533.533h-4.265a.533.533 0 01-.533-.533v-.533zm-10.66.534c0-.294.238-.533.533-.533h9.062v.533a1.6 1.6 0 001.599 1.599h4.265a1.6 1.6 0 001.599-1.599v-.533h9.062c.294 0 .533.239.533.533v2.132a.533.533 0 01-.533.533H1.601a.533.533 0 01-.533-.533V24.56z"/></symbol><symbol id="icon-envelope" viewBox="0 0 43 32"><path fill="var(--color3, #2196f3)" d="M38.667 0H4C1.795 0 0 1.795 0 4v24c0 2.205 1.795 4 4 4h34.667c2.205 0 4-1.795 4-4V4c0-2.205-1.795-4-4-4zm0 2.667c.181 0 .355.037.512.104L21.334 18.238 3.489 2.771c.151-.065.327-.104.512-.104h34.667zm0 26.666H4A1.333 1.333 0 012.667 28V5.587l17.792 15.421c.233.203.539.327.875.327s.642-.124.876-.328l-.002.001L40 5.587V28c0 .736-.597 1.333-1.333 1.333z"/></symbol></defs></svg>